<svg width="34" height="18" viewBox="0 0 34 18" fill="none" xmlns="http://www.w3.org/2000/svg">
<path d="M1.32818 7.6718H29.4551L24.7957 3.03505C24.2759 2.51762 24.2739 1.67672 24.7913 1.15682C25.3087 0.636864 26.1497 0.634939 26.6696 1.15231L33.6093 8.05855C33.6098 8.05895 33.6101 8.05941 33.6105 8.05981C34.1291 8.57724 34.1307 9.42087 33.6106 9.94003C33.6102 9.94043 33.6098 9.94089 33.6094 9.94129L26.6697 16.8475C26.1499 17.3648 25.3089 17.363 24.7914 16.843C24.274 16.3231 24.276 15.4822 24.7959 14.9648L29.4551 10.328H1.32818C0.594654 10.328 5.34058e-05 9.73344 5.34058e-05 8.99992C5.34058e-05 8.2664 0.594654 7.6718 1.32818 7.6718Z" fill="#E1E1E1"/>
</svg>
