<svg width="34" height="18" viewBox="0 0 34 18" fill="none" xmlns="http://www.w3.org/2000/svg">
<path d="M32.6718 7.6718H4.54493L9.20426 3.03505C9.72416 2.51762 9.72615 1.67672 9.20871 1.15682C8.69127 0.636864 7.8503 0.634939 7.33041 1.15231L0.39069 8.05855C0.390226 8.05895 0.389894 8.05941 0.389495 8.05981C-0.129071 8.57724 -0.130731 9.42087 0.389362 9.94003C0.389827 9.94043 0.390159 9.94089 0.390558 9.94129L7.33028 16.8475C7.8501 17.3648 8.69107 17.363 9.20858 16.843C9.72602 16.3231 9.72402 15.4822 9.20413 14.9648L4.54493 10.328H32.6718C33.4054 10.328 34 9.73344 34 8.99992C34 8.2664 33.4054 7.6718 32.6718 7.6718Z" fill="#E1E1E1"/>
</svg>
